<?xml version="1.0" encoding="UTF-8" standalone="no"?>
<svg
   xmlns:dc="http://purl.org/dc/elements/1.1/"
   xmlns:cc="http://creativecommons.org/ns#"
   xmlns:rdf="http://www.w3.org/1999/02/22-rdf-syntax-ns#"
   xmlns:svg="http://www.w3.org/2000/svg"
   xmlns="http://www.w3.org/2000/svg"
   xmlns:sodipodi="http://sodipodi.sourceforge.net/DTD/sodipodi-0.dtd"
   xmlns:inkscape="http://www.inkscape.org/namespaces/inkscape"
   version="1.1"
   id="Ebene_1"
   x="0px"
   y="0px"
   viewBox="0 0 800 200"
   xml:space="preserve"
   width="800"
   height="200"
   sodipodi:docname="project.svg"
   inkscape:version="0.92.2 2405546, 2018-03-11"><sodipodi:namedview
   pagecolor="#ffffff"
   bordercolor="#666666"
   borderopacity="1"
   objecttolerance="10"
   gridtolerance="10"
   guidetolerance="10"
   inkscape:pageopacity="0"
   inkscape:pageshadow="2"
   inkscape:window-width="1916"
   inkscape:window-height="1031"
   id="namedview13"
   showgrid="false"
   inkscape:zoom="0.9975"
   inkscape:cx="38.683107"
   inkscape:cy="80.976323"
   inkscape:window-x="1920"
   inkscape:window-y="47"
   inkscape:window-maximized="0"
   inkscape:current-layer="Ebene_1" /><metadata
   id="metadata33"><rdf:RDF><cc:Work
       rdf:about=""><dc:format>image/svg+xml</dc:format><dc:type
         rdf:resource="http://purl.org/dc/dcmitype/StillImage" /><dc:title></dc:title></cc:Work></rdf:RDF></metadata><defs
   id="defs31">

</defs>
<style
   type="text/css"
   id="style2">
    .st0{fill-rule:evenodd;clip-rule:evenodd;fill:#E73E11;}
    .st1{fill-rule:evenodd;clip-rule:evenodd;fill:#0371B9;}
    .st2{fill:#132E48;}
    .st3{font-family:'OpenSans-Bold';}
    .st4{font-size:29.5168px;}
    .st5{fill-rule:evenodd;clip-rule:evenodd;fill:none;}
    .st6{opacity:0.5;fill:#132E48;}
    .st7{font-family:'OpenSans';}
    .st8{font-size:12px;}
</style>
<text
   class="st2 st3 st4"
   id="text10"
   style="font-style:normal;font-variant:normal;font-weight:bold;font-stretch:normal;font-size:29.51733398px;font-family:'Open Sans', sans-serif;-inkscape-font-specification:'OpenSans-Bold, Bold';font-variant-ligatures:normal;font-variant-caps:normal;font-variant-numeric:normal;font-feature-settings:normal;text-align:start;writing-mode:lr-tb;text-anchor:start;fill:#132e48"
   x="192.43155"
   y="107.939">hausgold/postgres</text>
<rect
   x="194.23985"
   y="119.60001"
   class="st5"
   width="314.5"
   height="24"
   id="rect12"
   style="clip-rule:evenodd;fill:none;fill-rule:evenodd" /><text
   class="st6 st7 st8"
   id="text14"
   style="font-style:normal;font-variant:normal;font-weight:normal;font-stretch:normal;font-size:12px;font-family:'Open Sans', sans-serif;-inkscape-font-specification:'Open Sans, sans-serif, Normal';font-variant-ligatures:normal;font-variant-caps:normal;font-variant-numeric:normal;font-feature-settings:normal;text-align:start;writing-mode:lr-tb;text-anchor:start;opacity:0.5;fill:#132e48"
   x="194.21715"
   y="128.75729">mDNS enabled official/postgres</text>

<g
   id="g894"
   transform="translate(237.59399,-26.804634)"><path
     inkscape:connector-curvature="0"
     style="clip-rule:nonzero;fill:#000000;fill-rule:nonzero;stroke:#000000;stroke-width:15.25493431;stroke-linecap:butt;stroke-linejoin:miter;stroke-miterlimit:4"
     d="m -101.31362,158.855 c 0.89346,-7.43737 0.62572,-8.52804 6.169687,-7.3233 l 1.40751,0.12353 c 4.26293,0.1938 9.83938,-0.68509 13.1155,-2.20591 7.05242,-3.26979 11.23428,-8.72908 4.28027,-7.29461 -15.86241,3.26977 -16.95299,-2.09719 -16.95299,-2.09719 16.74989,-24.83316 23.75185,-56.356528 17.708,-64.072792 C -92.070293,54.937536 -120.60479,64.890275 -121.08227,65.14868 l -0.15202,0.02805 c -3.13419,-0.649797 -6.64178,-1.038037 -10.58208,-1.101693 -7.17826,-0.117858 -12.6251,1.880379 -16.75682,5.011822 0,0 -50.90405,-20.955489 -48.5359,26.353661 0.50365,10.06398 14.43692,76.15264 31.05497,56.19076 6.07381,-7.29935 11.94357,-13.47117 11.94357,-13.47117 2.9147,1.93491 6.40432,2.92189 10.06425,2.56737 l 0.28288,-0.24107 c -0.0886,0.90631 -0.0495,1.79277 0.11323,2.84215 -4.28027,4.77956 -3.02256,5.61877 -11.58151,7.37908 -8.65925,1.78331 -3.57195,4.95824 -0.25135,5.78798 4.0267,1.00621 13.34193,2.43153 19.63776,-6.37319 l -0.25073,1.00465 c 1.67938,1.34244 1.56585,9.64894 1.80396,15.58378 0.23841,5.93515 0.6361,11.47356 1.84683,14.73893 1.21072,3.26474 2.63938,11.67555 13.88786,9.26671 9.401,-2.01306 16.58872,-4.91036 17.24375,-31.86182"
     id="path3" /><path
     inkscape:connector-curvature="0"
     style="clip-rule:nonzero;fill:#336791;fill-rule:nonzero;stroke:none;stroke-width:5.08497858;stroke-linecap:round;stroke-linejoin:round;stroke-miterlimit:4"
     d="m -76.339073,142.15407 c -15.86399,3.26979 -16.95457,-2.09719 -16.95457,-2.09719 16.74989,-24.83473 23.75185,-56.358723 17.70926,-64.074041 C -92.069043,54.936906 -120.60479,64.890275 -121.081,65.14868 l -0.15329,0.02741 c -3.13419,-0.650112 -6.64178,-1.037406 -10.58397,-1.101693 -7.17826,-0.117543 -12.62321,1.880378 -16.75493,5.011191 0,0 -50.905,-20.954543 -48.53748,26.354292 0.50365,10.06461 14.43661,76.15328 31.05529,56.1914 6.07413,-7.29935 11.94294,-13.47117 11.94294,-13.47117 2.91501,1.93491 6.40464,2.92189 10.06299,2.56737 l 0.28415,-0.24107 c -0.0883,0.90631 -0.048,1.79277 0.11384,2.84215 -4.28121,4.77956 -3.02318,5.61877 -11.58151,7.37908 -8.65988,1.78331 -3.57257,4.95824 -0.25103,5.78798 4.0267,1.00621 13.34256,2.43153 19.63713,-6.37319 l -0.25104,1.00465 c 1.67749,1.34244 2.85541,8.73255 2.65799,15.43158 -0.19742,6.69933 -0.32925,11.29866 0.99249,14.89113 1.32173,3.59248 2.63905,11.67555 13.88974,9.26671 9.40102,-2.01306 14.27261,-7.22971 14.95035,-15.93139 0.48095,-6.1863 1.56931,-5.2718 1.63806,-10.80265 l 0.87295,-2.61841 c 1.00669,-8.38591 0.15991,-11.0913 5.951757,-9.83298 l 1.40751,0.12353 c 4.26293,0.1938 9.84224,-0.68509 13.11677,-2.2059 7.05115,-3.2698 11.23303,-8.7291 4.28058,-7.29463 z"
     id="path5" /><path
     inkscape:connector-curvature="0"
     d="m -135.16565,146.96106 c -0.4368,15.60396 0.10974,31.31663 1.63773,35.13537 1.52894,3.81875 4.80096,11.24635 16.0526,8.83782 9.40005,-2.01368 12.82031,-5.91057 14.30446,-14.51204 1.09309,-6.32843 3.200427,-23.90385 3.470697,-27.50483"
     id="path7"
     style="clip-rule:nonzero;fill:none;fill-rule:nonzero;stroke:#ffffff;stroke-width:5.08497858;stroke-linecap:round;stroke-linejoin:round;stroke-miterlimit:4" /><path
     inkscape:connector-curvature="0"
     d="m -148.65172,68.737062 c 0,0 -50.93968,-20.803597 -48.57154,26.505238 0.50365,10.06461 14.43755,76.15548 31.05593,56.19265 6.07286,-7.30029 11.56511,-13.02588 11.56511,-13.02588"
     id="path9"
     style="clip-rule:nonzero;fill:none;fill-rule:nonzero;stroke:#ffffff;stroke-width:5.08497858;stroke-linecap:round;stroke-linejoin:round;stroke-miterlimit:4" /><path
     inkscape:connector-curvature="0"
     d="m -121.13683,64.940065 c -1.76327,0.552424 28.335817,-10.994557 45.441437,10.845817 6.04227,7.715634 -0.95968,39.239618 -17.70925,64.074988"
     id="path11"
     style="clip-rule:nonzero;fill:none;fill-rule:nonzero;stroke:#ffffff;stroke-width:5.08497858;stroke-linecap:round;stroke-linejoin:round;stroke-miterlimit:4" /><path
     inkscape:connector-curvature="0"
     style="clip-rule:nonzero;fill:none;fill-rule:nonzero;stroke:#ffffff;stroke-width:5.08497858;stroke-linecap:round;stroke-linejoin:bevel;stroke-miterlimit:4"
     d="m -93.404973,139.86087 c 0,0 1.09152,5.36856 16.95584,2.09655 6.95086,-1.43446 2.76773,4.02548 -4.28185,7.29684 -5.78556,2.68301 -18.75661,3.37063 -18.96854,-0.33688 -0.545297,-9.56576 6.82691,-6.65963 6.29488,-9.05651 -0.48094,-2.15864 -3.77789,-4.27726 -5.9587,-9.5604 -1.903907,-4.61128 -26.111787,-39.973877 6.71338,-34.721924 1.20253,-0.248643 -8.561157,-31.198465 -39.280887,-31.701728 -30.7128,-0.503262 -29.70518,37.740552 -29.70518,37.740552"
     id="path13" /><path
     inkscape:connector-curvature="0"
     d="m -143.76342,143.13223 c -4.28183,4.77926 -3.02254,5.61846 -11.5815,7.37939 -8.65988,1.78363 -3.57195,4.95793 -0.25136,5.78736 4.0267,1.00685 13.34257,2.43217 19.63714,-6.37476 1.91685,-2.68143 -0.0114,-6.95995 -2.64442,-8.05062 -1.27222,-0.52657 -2.97335,-1.18647 -5.15986,1.25863 z"
     id="path15"
     style="clip-rule:nonzero;fill:none;fill-rule:nonzero;stroke:#ffffff;stroke-width:5.08497858;stroke-linecap:round;stroke-linejoin:round;stroke-miterlimit:4" /><path
     inkscape:connector-curvature="0"
     d="m -144.04378,143.04872 c -0.43143,-2.81001 0.92405,-6.15384 2.37666,-10.06587 2.18303,-5.86959 7.21989,-11.74015 3.19065,-30.35928 -3.00331,-13.874831 -23.14726,-2.887522 -23.15987,-1.0062 -0.0123,1.88069 0.91112,9.53583 -0.3365,18.45021 -1.62798,11.63239 7.40752,21.47041 17.81205,20.46388"
     id="path17"
     style="clip-rule:nonzero;fill:none;fill-rule:nonzero;stroke:#ffffff;stroke-width:5.08497858;stroke-linecap:round;stroke-linejoin:round;stroke-miterlimit:4" /><path
     inkscape:connector-curvature="0"
     style="clip-rule:nonzero;fill:#ffffff;fill-rule:nonzero;stroke:#ffffff;stroke-width:1.69497931;stroke-linecap:butt;stroke-linejoin:miter;stroke-miterlimit:4"
     d="m -148.83685,101.33533 c -0.0908,0.64255 1.1773,2.35717 2.8308,2.58627 1.65068,0.23005 3.06356,-1.10988 3.15312,-1.75181 0.0896,-0.64255 -1.17697,-1.35032 -2.83111,-1.58038 -1.65162,-0.23035 -3.06513,0.10494 -3.15249,0.74592 z"
     id="path19" /><path
     inkscape:connector-curvature="0"
     style="clip-rule:nonzero;fill:#ffffff;fill-rule:nonzero;stroke:#ffffff;stroke-width:0.84748966;stroke-linecap:butt;stroke-linejoin:miter;stroke-miterlimit:4"
     d="m -98.558503,100.02534 c 0.0896,0.64255 -1.17698,2.35716 -2.830807,2.58626 -1.65193,0.23005 -3.0648,-1.10988 -3.15532,-1.7518 -0.0873,-0.64255 1.1795,-1.350326 2.83175,-1.580373 1.65224,-0.230046 3.064807,0.10494 3.154377,0.746223 z"
     id="path21" /><path
     inkscape:connector-curvature="0"
     d="m -92.649963,95.578546 c 0.27217,5.040174 -1.08646,8.473194 -1.25771,13.838604 -0.25357,7.79883 3.72111,16.72519 -2.26786,25.66258"
     id="path23"
     style="clip-rule:nonzero;fill:none;fill-rule:nonzero;stroke:#ffffff;stroke-width:5.08497858;stroke-linecap:round;stroke-linejoin:round;stroke-miterlimit:4" /><path
     inkscape:connector-curvature="0"
     style="clip-rule:nonzero;fill:none;fill-rule:nonzero;stroke:#ffffff;stroke-width:1.22381175;stroke-linecap:round;stroke-linejoin:round;stroke-miterlimit:4"
     d="M -203.2444,75.662351"
     id="path25" /></g></svg>